<?xml version="1.0" encoding="utf-8"?>
<!-- Generator: Adobe Illustrator 23.0.2, SVG Export Plug-In . SVG Version: 6.00 Build 0)  -->
<svg version="1.1" id="Layer_1" xmlns="http://www.w3.org/2000/svg" xmlns:xlink="http://www.w3.org/1999/xlink" x="0px" y="0px"
	 viewBox="0 0 18.5 17.9" style="enable-background:new 0 0 18.5 17.9;" xml:space="preserve">
<style type="text/css">
	.st0{fill:#FFD556;}
	.st1{fill:#484848;}
</style>
<title>icon</title>
<path class="st0" d="M8,17.3c0.3,0.1,0.6,0.2,0.9,0.3L8,17.3z"/>
<path class="st0" d="M8.9,17.5"/>
<path class="st1" d="M9.3,0.3C4.5,0.2,0.5,4.1,0.4,8.9c0,0.9,0.1,1.7,0.4,2.6C0.9,12,1,12.4,0.9,12.9c-0.1,1.3-0.3,2.6-0.6,3.9
	c-0.1,0.3,0.1,0.7,0.4,0.8c0.1,0,0.2,0,0.3,0c1.6-0.4,3.3-0.5,5-0.3l0,0l0.9,0.3l0,0c0.8,0.2,1.6,0.3,2.4,0.3
	c4.9,0.1,8.9-3.7,9.1-8.5s-3.7-9-8.6-9.1C9.7,0.3,9.5,0.3,9.3,0.3z M9.3,16.6c-1,0-2-0.2-2.9-0.6c-1.5-0.3-3.1-0.3-4.6,0
	c0.5-1.5,0.5-3.1,0.2-4.7c-0.1-0.4-0.2-0.8-0.3-1.2c0-0.2,0-0.7,0-1.1c0-4.2,3.4-7.6,7.6-7.6s7.6,3.4,7.6,7.6
	C16.8,13.2,13.5,16.6,9.3,16.6z"/>
<path class="st1" d="M5.6,6.8h7.7c0.3,0,0.6,0.3,0.6,0.6l0,0c0,0.3-0.3,0.6-0.6,0.6H5.6C5.3,8,5,7.8,5,7.4l0,0
	C5,7.1,5.3,6.8,5.6,6.8z"/>
<path class="st1" d="M5.6,10.1h7.7c0.3,0,0.6,0.3,0.6,0.6l0,0l0,0c0,0.3-0.3,0.6-0.6,0.6l0,0H5.6C5.3,11.3,5,11,5,10.7l0,0l0,0
	C5,10.3,5.3,10.1,5.6,10.1L5.6,10.1z"/>
</svg>
