<?xml version="1.0" encoding="utf-8"?>
<!-- Generator: Adobe Illustrator 23.0.2, SVG Export Plug-In . SVG Version: 6.00 Build 0)  -->
<svg version="1.1" id="Layer_1" xmlns="http://www.w3.org/2000/svg" xmlns:xlink="http://www.w3.org/1999/xlink" x="0px" y="0px"
	 viewBox="0 0 22.6 22.8" style="enable-background:new 0 0 22.6 22.8;" xml:space="preserve">
<style type="text/css">
	.st0{fill:#484848;}
	.st1{fill:none;stroke:#484848;stroke-width:0.75;stroke-miterlimit:10;}
</style>
<title>icon email</title>
<path class="st0" d="M20.2,7.3H19v1.2c0.4,0,0.8,0.2,1.1,0.4l-8.8,5.5L2.5,8.8c0.4-0.2,0.8-0.3,1.2-0.3h0.7V7.3h-2
	C1.1,7.3,0,8.3,0,9.7v10.8c0,1.3,1.1,2.4,2.4,2.4h17.8c1.3,0,2.4-1.1,2.4-2.4l0,0V9.7C22.6,8.3,21.6,7.3,20.2,7.3L20.2,7.3z
	 M1.8,20.3c-0.3-0.4-0.4-0.8-0.4-1.3v-8.1c0-0.5,0.1-0.9,0.4-1.3l8.6,5.4L1.8,20.3z M18.9,21.4h-15c-0.4,0-0.8-0.1-1.2-0.3l8.8-5.5
	l8.6,5.4C19.7,21.2,19.3,21.3,18.9,21.4z M21.2,19c0,0.4-0.1,0.8-0.4,1.2l-8.5-5.3l8.5-5.3c0.2,0.4,0.3,0.8,0.3,1.2L21.2,19z"/>
<path class="st0" d="M18.4,1v8.6l-6.9,4L5,9.6V1H18.4 M18.6,0H4.8C4.3,0,4,0.4,4,0.8l0,0v9.3l7.5,4.6l7.9-4.6V0.8
	C19.4,0.4,19,0,18.6,0z"/>
<line class="st1" x1="6.2" y1="2.8" x2="16.5" y2="2.8"/>
<line class="st1" x1="6.2" y1="5.6" x2="16.5" y2="5.6"/>
<line class="st1" x1="6.2" y1="8.1" x2="11.1" y2="8.1"/>
</svg>
