<?xml version="1.0" encoding="utf-8"?>
<!-- Generator: Adobe Illustrator 23.0.2, SVG Export Plug-In . SVG Version: 6.00 Build 0)  -->
<svg version="1.1" id="Layer_1" xmlns="http://www.w3.org/2000/svg" xmlns:xlink="http://www.w3.org/1999/xlink" x="0px" y="0px"
	 viewBox="0 0 501 501" style="enable-background:new 0 0 501 501;" xml:space="preserve">
<style type="text/css">
	.st0{fill:#484848;}
</style>
<g>
	<path class="st0" d="M367.2,0.3c7.8-1.2,15.8-0.5,23.2,2c6,2,11.3,5.5,16.7,8.6c13.5,7.8,27.1,15.7,40.6,23.5
		c20.6,11.9,37,31,45.7,53.2c8.9,22.2,10.1,47.4,3,70.3c-11,36.5-26.7,71.5-46.4,104.1c-18.1,29.7-39.4,57.3-63.3,82.6
		c-9.6,10.4-20,20-29.8,30.2c-51.8,52.4-115,94.3-185,117.9c-7.5,2.4-14.9,5.2-22.7,6.5c-20.1,3.1-41.2,1.4-60.1-6.3
		c-23.1-9.1-42.7-26.5-54.9-48.1C25,429,15.8,413.1,6.7,397.3c-6.4-10.9-8-24.3-4.6-36.4c3-11,10.3-20.8,20-26.8
		c18.3-11.3,36.6-22.6,55-33.9c6.4-3.8,12.5-8.4,19.7-10.6c16.1-5.6,35-1.7,47.4,10.1c7.3,6.5,11.2,15.6,16.6,23.5
		c1.6,2.3,4.9,2,7.2,0.9c15.5-6.5,29.6-16,43.1-25.9c16.6-12.3,32.4-25.6,47.3-39.8c13.3-14.4,26-29.5,37.8-45.2
		c11-14.7,21.6-30,29-46.9c1.2-2.3,0.7-5.6-1.7-6.9c-7.6-5-16.1-8.8-22.4-15.5c-14.4-14.4-17.8-38.5-7.5-56.2
		c12.2-19.7,24.5-39.4,36.8-59.1c3.1-4.8,5.9-9.9,9.9-14.1C347.3,6.8,357,1.8,367.2,0.3 M375.6,41.5c-2.1,0.7-3.8,2.2-4.9,4.1
		c-13,21-26,42-39.1,62.9c-1.5,1.9-1.1,4.9,0.7,6.4c7.6,5.4,16.4,9.1,22.9,16c12.6,12.5,16.9,32.4,10.7,49
		c-4.8,12.2-11.5,23.5-18.4,34.5c-16,24.8-34.6,47.9-54.6,69.5c-10.2,10.3-21.2,19.7-32.3,28.9c-20.7,17-42.5,33-66.5,45.2
		c-7.3,3.5-14.8,7.1-23,8c-14,1.8-28.6-3.4-38.6-13.4c-6.4-6.3-10.2-14.6-15.1-22c-1.1-2.3-4.3-2.1-6.2-1.3
		c-21.3,13.2-42.7,26.3-64.1,39.5c-1.6,1.1-3.3,2.3-3.9,4.2c-0.8,2.3,1.2,4,2.1,5.9c9.1,15.8,18.2,31.7,27.4,47.5
		c8.9,15,24.1,26.1,41,30.1c12.5,3.2,25.8,2.3,37.9-1.9c61.7-19.1,118-53.9,164.7-98.4c10.1-9.5,19.6-19.8,29.6-29.4
		c48.6-47.5,86.6-106.1,108.4-170.5c2.9-8.5,5.9-17.2,6.1-26.3c1.2-24.1-12.1-48.3-33.2-60.1c-15.9-9.2-31.8-18.3-47.6-27.5
		C378.4,41.8,376.9,40.7,375.6,41.5z"/>
	<path class="st0" d="M184.4,15.4c5.6,0,11.4-1,16.7,1.3c8.5,3.2,14.2,12.3,13.5,21.3c-0.5,8.1-6.1,15.7-13.7,18.5
		c-5.7,2.2-12,1.1-17.9,1.8c-31.4,2.3-61.8,16.3-84,38.7c-22.4,22.2-36.4,52.6-38.7,84.1c-0.6,6.6,0.6,13.5-2.6,19.6
		c-4.2,8.9-15.2,14-24.7,11.2c-8.8-2.3-15.5-10.7-15.7-19.8c-0.2-31.1,8.1-62.2,23.8-89c19.8-34.2,51.4-61.4,88.3-75.7
		C146.9,20.5,165.6,16.5,184.4,15.4z"/>
	<path class="st0" d="M181.5,105.7c7.2-0.8,15.2-2,21.9,1.7c7.3,3.9,12,12.3,11.2,20.6c-0.6,8-6,15.2-13.4,18.1
		c-5.8,2.4-12.3,1-18.2,2.8c-15.8,3.7-28.7,16.8-32.3,32.6c-1.8,5.8-0.4,12.1-2.7,17.8c-3.1,8-11.5,13.7-20.1,13.4
		c-8.3,0.1-16.2-5.4-19.4-13c-2.1-5-1.7-10.5-1.3-15.7c1.9-22.3,12.9-43.5,29.8-58C149.5,115.1,165.1,108,181.5,105.7z"/>
</g>
</svg>
