<?xml version="1.0" encoding="utf-8"?>
<!-- Generator: Adobe Illustrator 23.0.2, SVG Export Plug-In . SVG Version: 6.00 Build 0)  -->
<svg version="1.1" id="Layer_1" xmlns="http://www.w3.org/2000/svg" xmlns:xlink="http://www.w3.org/1999/xlink" x="0px" y="0px"
	 viewBox="0 0 533.7 542.5" style="enable-background:new 0 0 533.7 542.5;" xml:space="preserve">
<style type="text/css">
	.st0{fill:#2B3990;}
	.st1{opacity:0.27;fill:#2B3990;}
	.st2{opacity:0.2;fill:#2B3990;}
</style>
<path class="st0" d="M156.8,312.8c0.4,1.5,1.3,2.8,2.6,3.9c3.4,2.8,8.4,2.3,11.2-1c1.6-1.9,2.1-4.3,1.7-6.6c0-0.2-0.1-0.3-0.1-0.5
	l-0.5-2.2c-0.4-1.8-0.6-3.6-0.6-5.4c0.1-10.7,7.6-20.3,18.4-22.7c7.3-1.6,14.7,0.4,20.1,4.9c3.9,3.2,6.8,7.7,7.9,13l48.2,217.7
	c2.8,12.6-5.2,25.2-17.9,28c-12.6,2.8-25.2-5.2-28-17.9l-42.1-189.9l-1.7-7.8c-0.1-0.4-0.1-0.8-0.3-1.2c-0.4-1.4-1.3-2.7-2.5-3.8
	c-3.4-2.8-8.4-2.3-11.2,1c-1.6,1.9-2.1,4.3-1.7,6.6c0,0.1,0.1,0.3,0.1,0.4l1.6,7.2l22.3,100.6c2.8,12.6-5.2,25.2-17.9,28
	c-12.6,2.8-25.2-5.2-28-17.9L90.3,229.7c-2.8-12.6,5.2-25.2,17.9-28c7.3-1.6,14.7,0.4,20.1,4.9c3.9,3.2,6.8,7.7,7.9,13l17.3,78
	l3.2,14.3C156.7,312.2,156.7,312.5,156.8,312.8z"/>
<path class="st0" d="M175.8,325.2c0.1,0.4,0.2,0.8,0.3,1.2L175.8,325.2z"/>
<circle class="st0" cx="178.8" cy="126.5" r="10.2"/>
<circle class="st1" cx="109.7" cy="398.7" r="24.8"/>
<circle class="st0" cx="8.6" cy="297.1" r="8.6"/>
<circle class="st2" cx="339.3" cy="194.3" r="194.3"/>
<path class="st0" d="M278.4,464.6L278.4,464.6c-3.4,0.8-6.7-1.4-7.5-4.7l-56.6-251.2c-0.8-3.4,1.4-6.7,4.7-7.5h0
	c3.4-0.8,6.7,1.4,7.5,4.7l56.6,251.2C283.9,460.5,281.8,463.9,278.4,464.6z"/>
</svg>
