<?xml version="1.0" encoding="utf-8"?>
<!-- Generator: Adobe Illustrator 23.0.2, SVG Export Plug-In . SVG Version: 6.00 Build 0)  -->
<svg version="1.1" id="Layer_1" xmlns="http://www.w3.org/2000/svg" xmlns:xlink="http://www.w3.org/1999/xlink" x="0px" y="0px"
	 viewBox="0 0 26 31.6" style="enable-background:new 0 0 26 31.6;" xml:space="preserve">
<style type="text/css">
	.st0{fill-rule:evenodd;clip-rule:evenodd;fill:url(#SVGID_1_);}
</style>
<linearGradient id="SVGID_1_" gradientUnits="userSpaceOnUse" x1="7.3036" y1="1.3445" x2="20.9198" y2="28.0679">
	<stop  offset="0" style="stop-color:#7a7a7a"/>
	<stop  offset="1" style="stop-color:#000000"/>
</linearGradient>
<path class="st0" d="M13.2,0C6-0.1,0.1,5.8,0,13c0,3.2,3.1,8.4,3.1,8.4s6.3,10.4,10.1,10.3c3.8,0.2,10.1-10.3,10.1-10.3
	S26,16.2,26,13c0.1-7-5.5-12.9-12.5-13C13.4,0,13.3,0,13.2,0z M12.9,18.9c-3.3,0-5.9-2.7-5.8-6s2.7-5.9,6-5.8c3.2,0,5.8,2.7,5.8,5.9
	C18.9,16.3,16.2,18.9,12.9,18.9C12.9,18.9,12.9,18.9,12.9,18.9z"/>
</svg>
