<?xml version="1.0" encoding="utf-8"?>
<!-- Generator: Adobe Illustrator 23.0.2, SVG Export Plug-In . SVG Version: 6.00 Build 0)  -->
<svg version="1.1" id="Layer_1" xmlns="http://www.w3.org/2000/svg" xmlns:xlink="http://www.w3.org/1999/xlink" x="0px" y="0px"
	 viewBox="0 0 24.2 18.6" style="enable-background:new 0 0 24.2 18.6;" xml:space="preserve">
<style type="text/css">
	.st0{fill-rule:evenodd;clip-rule:evenodd;fill:url(#SVGID_1_);}
</style>
<linearGradient id="SVGID_1_" gradientUnits="userSpaceOnUse" x1="6.3205" y1="-2.0237" x2="17.8625" y2="20.6287">
	<stop  offset="0" style="stop-color:#7a7a7a"/>
	<stop  offset="1" style="stop-color:#000000"/>
</linearGradient>
<path class="st0" d="M21.2,18.6H3c-1.7,0-3-1.4-3-3.1c0,0,0,0,0,0V3.1C0,1.4,1.3,0,3,0c0,0,0,0,0,0h18.1c1.7,0,3,1.4,3,3.1
	c0,0,0,0,0,0v12.4C24.2,17.2,22.8,18.6,21.2,18.6z M20.9,4.4c0.3-0.3,0.3-0.8,0-1.1c-0.3-0.3-0.8-0.3-1.1,0c0,0,0,0,0,0l-7.8,7.3
	L4.3,3.3C4,3,3.6,3,3.3,3.3c0,0,0,0,0,0c-0.3,0.3-0.3,0.8,0,1.1l5,4.6l-5,5.1C3,14.5,3,15,3.2,15.3c0.3,0.3,0.8,0.3,1,0c0,0,0,0,0,0
	l5-5.2l2.2,2.1c0.3,0.3,0.8,0.3,1.1,0c0,0,0,0,0,0l2.2-2.1l5,5.2c0.3,0.3,0.8,0.3,1,0c0,0,0,0,0,0c0.3-0.3,0.3-0.8,0-1.1l-5-5.1
	L20.9,4.4z"/>
</svg>
